<svg width="41" height="40" viewBox="0 0 41 40" fill="none" xmlns="http://www.w3.org/2000/svg">
<path d="M37.0915 19.9262C37.0915 28.857 29.5429 36.097 20.2313 36.097M37.0915 19.9262C37.0915 10.9953 29.5429 3.75537 20.2313 3.75537M37.0915 19.9262H3.37109M20.2313 36.097C10.9197 36.097 3.37109 28.857 3.37109 19.9262M20.2313 36.097C24.4485 31.6688 26.8451 25.9222 26.9754 19.9262C26.8451 13.9301 24.4485 8.1835 20.2313 3.75537M20.2313 36.097C16.0141 31.6688 13.6175 25.9222 13.4872 19.9262C13.6175 13.9301 16.0141 8.1835 20.2313 3.75537M3.37109 19.9262C3.37109 10.9953 10.9197 3.75537 20.2313 3.75537" stroke="white" stroke-width="4" stroke-linecap="round" stroke-linejoin="round"/>
</svg>
