<svg width="30" height="19" viewBox="0 0 30 19" fill="none" xmlns="http://www.w3.org/2000/svg">
<path d="M3.67946 18.8521C2.89856 18.8521 2.22416 18.6267 1.65623 18.1758C1.11197 17.7054 0.839844 17.1468 0.839844 16.5V2.38727C0.839844 1.74044 1.11197 1.19161 1.65623 0.74079C2.22416 0.270367 2.89856 0.0351562 3.67946 0.0351562H26.3964C27.1773 0.0351562 27.8398 0.270367 28.3841 0.74079C28.952 1.19161 29.236 1.74044 29.236 2.38727V16.5C29.236 17.1468 28.952 17.7054 28.3841 18.1758C27.8398 18.6267 27.1773 18.8521 26.3964 18.8521H3.67946ZM15.0379 10.6197L26.3964 4.73939V2.38727L15.0379 8.26756L3.67946 2.38727V4.73939L15.0379 10.6197Z" fill="white"/>
</svg>
