<svg width="34" height="28" viewBox="0 0 34 28" fill="none" xmlns="http://www.w3.org/2000/svg">
<g clip-path="url(#clip0_99_495)">
<path d="M31.167 19.5918V22.9668C31.1686 23.2801 31.0878 23.5902 30.9297 23.8773C30.7717 24.1643 30.5399 24.422 30.2491 24.6338C29.9584 24.8457 29.6152 25.0069 29.2414 25.1073C28.8677 25.2077 28.4716 25.245 28.0787 25.2168C23.7194 24.8406 19.5319 23.6577 15.8529 21.763C12.4299 20.0357 9.52791 17.7312 7.35285 15.013C4.95866 12.0781 3.4687 8.73662 3.00369 5.25925C2.96828 4.94815 3.01484 4.63461 3.1404 4.33858C3.26595 4.04255 3.46774 3.77053 3.73294 3.53982C3.99813 3.30912 4.32091 3.1248 4.68072 2.99859C5.04054 2.87238 5.4295 2.80704 5.82285 2.80675H10.0729C10.7604 2.80138 11.4269 2.99471 11.9482 3.35072C12.4695 3.70673 12.81 4.20113 12.9062 4.74175C13.0856 5.82182 13.4182 6.88232 13.8979 7.903C14.0885 8.30566 14.1297 8.74328 14.0167 9.16399C13.9037 9.5847 13.6412 9.97087 13.2604 10.2767L11.4612 11.7055C13.4779 14.522 16.4145 16.854 19.9612 18.4555L21.7604 17.0268C22.1455 16.7243 22.6318 16.5158 23.1616 16.4261C23.6914 16.3364 24.2425 16.3691 24.7495 16.5205C26.0348 16.9014 27.3703 17.1655 28.7304 17.308C29.4185 17.3851 30.047 17.6604 30.4963 18.0814C30.9455 18.5025 31.1843 19.04 31.167 19.5918Z" stroke="white" stroke-width="4" stroke-linecap="round" stroke-linejoin="round"/>
</g>
<defs>
<clipPath id="clip0_99_495">
<rect width="34" height="27" fill="white" transform="translate(0 0.556641)"/>
</clipPath>
</defs>
</svg>
